<?xml version="1.0" standalone="no"?>
<svg xmlns="http://www.w3.org/2000/svg" viewBox="0 0 266.088 23.981" width="266.088" height="23.981"><g fill="#010080" color="#010080" transform="translate(0, 0) scale(0.5576924)"><svg width="52.0" height="43.0" x="0.0" y="0.0" viewBox="0 0 52 43"><path fill="currentColor" fill-rule="evenodd" d="M49.042 39.694c-.449.449-5.2-.09-6.097-.09H21.069c-6.007 0-12.91.27-18.648.27.18-5.917.269-11.835.269-17.752 7.441-.18 14.972-.18 22.414-.09-2.062 2.242-3.138 4.931-5.38 7.531-.807.988.449 2.242 1.435 1.436 1.883-1.524 2.51-3.587 3.765-5.559.538-.896 1.255-1.614 1.973-2.152 1.076.896 1.882 2.062 2.69 3.138.896 1.344 1.524 3.137 2.689 4.303.717.628 2.152.27 2.062-.897-.269-1.972-1.793-3.855-2.959-5.379a23.186 23.186 0 0 0-1.882-2.15c6.276.267 12.73.805 19.006.536l.27 8.07c0 1.523.09 3.048.09 4.573 0 .537.536 3.944.179 4.212zm-23.49-20.172c-.717-.09-1.435-.538-2.062-.896-1.973-1.076-3.586-1.973-3.138-4.304.269-1.703 1.076-2.241 2.69-1.703 2.062.718 2.33 3.675 2.51 5.558v1.345zm1.972.628c.09-2.062.897-3.856 2.51-5.38 2.6-2.42 3.049 1.166 1.704 2.69-.986 1.076-2.6 1.704-3.856 2.42-.089.09-.268.18-.358.27zm5.559-17.393c2.241 0 4.483 0 6.814.09 1.793 0 4.214-.36 5.916.089 2.601.717 1.973 6.186 2.153 8.427l.537 9.683c-5.648-.717-11.386-.717-17.124-.717 0 0 .09 0 .09-.09 2.24-1.523 5.11-4.303 4.034-7.35-.986-3.05-4.035-1.884-5.917-.449a11.648 11.648 0 0 0-2.69 2.868c-.359-1.882-1.165-3.676-2.958-4.393-1.703-.716-4.214-.268-5.469 1.166-2.152 2.779.448 6.365 3.586 8.158-6.455-.09-12.91 0-19.276.27.09-5.827.09-11.746 0-17.573 5.2-.09 10.31-.18 15.51-.18h14.794zM51.82 36.736c-.09-3.675-.09-7.352-.27-11.028-.268-6.903-.447-13.896-1.255-20.8-.537-4.93-3.496-4.841-7.8-4.841-5.2-.09-10.4-.09-15.6 0-8.517.09-17.034.18-25.551.359C.628.426 0 1.053 0 1.77c.18 13 .09 26 .18 39-.27.718.09 1.614 1.075 1.614 5.918 0 13.359.27 19.814.27 5.648 0 11.296 0 17.035-.09h7.62c1.524 0 3.945.448 5.2-.538 1.613-1.344.897-3.676.897-5.29z"></path></svg></g><line x1="41" y1="1" x2="41" y2="22.981" stroke="#010080" stroke-linecap="round"></line><path fill="#010080" fill-rule="nonzero" d="M8.16 3.36L8.16 3.36L8.16 12.96Q8.16 15.91 4.92 16.27L4.92 16.27L5.64 19.37L4.20 19.37L3.48 16.30Q0 16.01 0 12.96L0 12.96L0 3.36Q0 1.75 1.02 0.88Q2.04 0 4.07 0Q6.10 0 7.13 0.88Q8.16 1.75 8.16 3.36ZM6.48 12.96L6.48 12.96L6.48 3.36Q6.48 1.44 4.08 1.44Q1.68 1.44 1.68 3.36L1.68 3.36L1.68 12.96Q1.68 14.88 4.08 14.88Q6.48 14.88 6.48 12.96ZM12.36 12.96L12.36 12.96L12.36 0.36L14.04 0.36L14.04 12.96Q14.04 13.87 14.44 14.38Q14.83 14.88 15.89 14.88Q16.94 14.88 17.83 14.06Q18.72 13.25 18.72 12.48L18.72 12.48L18.72 0.36L20.40 0.36L20.40 15.96L19.68 15.96L19.06 14.42Q18.53 15.29 17.70 15.80Q16.87 16.32 15.89 16.32L15.89 16.32Q12.36 16.32 12.36 12.96ZM31.08 12.96L31.08 12.96L31.08 11.64L32.76 11.64L32.76 12.96Q32.76 14.57 31.78 15.44Q30.79 16.32 28.82 16.32Q26.86 16.32 25.85 15.44Q24.84 14.57 24.84 12.96L24.84 12.96L24.84 3.36Q24.84 1.75 25.82 0.88Q26.81 0 28.78 0Q30.74 0 31.75 0.88Q32.76 1.75 32.76 3.36L32.76 3.36L32.76 8.64L26.52 8.64L26.52 12.96Q26.52 14.88 28.80 14.88Q31.08 14.88 31.08 12.96ZM26.52 3.36L26.52 3.36L26.52 7.20L31.08 7.20L31.08 3.36Q31.08 1.44 28.80 1.44Q26.52 1.44 26.52 3.36ZM43.08 12.96L43.08 12.96L43.08 11.64L44.76 11.64L44.76 12.96Q44.76 14.57 43.78 15.44Q42.79 16.32 40.82 16.32Q38.86 16.32 37.85 15.44Q36.84 14.57 36.84 12.96L36.84 12.96L36.84 3.36Q36.84 1.75 37.82 0.88Q38.81 0 40.78 0Q42.74 0 43.75 0.88Q44.76 1.75 44.76 3.36L44.76 3.36L44.76 8.64L38.52 8.64L38.52 12.96Q38.52 14.88 40.80 14.88Q43.08 14.88 43.08 12.96ZM38.52 3.36L38.52 3.36L38.52 7.20L43.08 7.20L43.08 3.36Q43.08 1.44 40.80 1.44Q38.52 1.44 38.52 3.36ZM50.88 3.84L50.88 15.96L49.20 15.96L49.20 0.36L49.92 0.36L50.52 1.92Q51.67 0 53.71 0L53.71 0Q57.24 0 57.24 3.36L57.24 3.36L57.24 15.96L55.56 15.96L55.56 3.36Q55.56 2.45 55.16 1.94Q54.77 1.44 53.71 1.44Q52.66 1.44 51.77 2.26Q50.88 3.07 50.88 3.84L50.88 3.84ZM73.20 12.96L73.20 12.96L73.20 11.64L74.88 11.64L74.88 12.96Q74.88 14.57 73.90 15.44Q72.91 16.32 70.94 16.32Q68.98 16.32 67.97 15.44Q66.96 14.57 66.96 12.96L66.96 12.96L66.96 3.36Q66.96 1.75 67.94 0.88Q68.93 0 70.90 0Q72.86 0 73.87 0.88Q74.88 1.75 74.88 3.36L74.88 3.36L74.88 5.64L73.20 5.64L73.20 3.36Q73.20 1.44 70.92 1.44Q68.64 1.44 68.64 3.36L68.64 3.36L68.64 12.96Q68.64 14.88 70.92 14.88Q73.20 14.88 73.20 12.96ZM80.76 4.99L80.76 15.96L79.08 15.96L79.08 0.36L79.80 0.36L80.50 2.14Q81.26 0 82.94 0L82.94 0Q85.80 0 85.80 3.12L85.80 3.12L85.80 4.68L84.19 4.68L84.19 3.02Q84.19 1.44 82.87 1.44L82.87 1.44Q82.08 1.44 81.42 2.35Q80.76 3.26 80.76 4.99L80.76 4.99ZM94.56 12.96L94.56 12.96L94.56 11.64L96.24 11.64L96.24 12.96Q96.24 14.57 95.26 15.44Q94.27 16.32 92.30 16.32Q90.34 16.32 89.33 15.44Q88.32 14.57 88.32 12.96L88.32 12.96L88.32 3.36Q88.32 1.75 89.30 0.88Q90.29 0 92.26 0Q94.22 0 95.23 0.88Q96.24 1.75 96.24 3.36L96.24 3.36L96.24 8.64L90 8.64L90 12.96Q90 14.88 92.28 14.88Q94.56 14.88 94.56 12.96ZM90 3.36L90 3.36L90 7.20L94.56 7.20L94.56 3.36Q94.56 1.44 92.28 1.44Q90 1.44 90 3.36ZM106.56 12.96L106.56 12.96L106.56 11.64L108.24 11.64L108.24 12.96Q108.24 14.57 107.26 15.44Q106.27 16.32 104.30 16.32Q102.34 16.32 101.33 15.44Q100.32 14.57 100.32 12.96L100.32 12.96L100.32 3.36Q100.32 1.75 101.30 0.88Q102.29 0 104.26 0Q106.22 0 107.23 0.88Q108.24 1.75 108.24 3.36L108.24 3.36L108.24 8.64L102 8.64L102 12.96Q102 14.88 104.28 14.88Q106.56 14.88 106.56 12.96ZM102 3.36L102 3.36L102 7.20L106.56 7.20L106.56 3.36Q106.56 1.44 104.28 1.44Q102 1.44 102 3.36ZM114.38 9.96L114.38 15.96L112.70 15.96L112.70 0.36L114.38 0.36L114.38 6.98L118.56 0.36L120.43 0.36L116.18 7.08L120.72 15.96L118.87 15.96L115.18 8.69L114.38 9.96ZM135 12.96L135 12.96L135 11.64L136.68 11.64L136.68 12.96Q136.68 14.57 135.70 15.44Q134.71 16.32 132.74 16.32Q130.78 16.32 129.77 15.44Q128.76 14.57 128.76 12.96L128.76 12.96L128.76 3.36Q128.76 1.75 129.74 0.88Q130.73 0 132.70 0Q134.66 0 135.67 0.88Q136.68 1.75 136.68 3.36L136.68 3.36L136.68 5.64L135 5.64L135 3.36Q135 1.44 132.72 1.44Q130.44 1.44 130.44 3.36L130.44 3.36L130.44 12.96Q130.44 14.88 132.72 14.88Q135 14.88 135 12.96ZM142.56 8.76L142.56 15.96L140.88 15.96L140.88 0.36L142.56 0.36L142.56 7.32L147.29 7.32L147.29 0.36L148.97 0.36L148.97 15.96L147.29 15.96L147.29 8.76L142.56 8.76ZM161.21 3.36L161.21 15.96L160.49 15.96L159.86 14.42Q159.36 15.29 158.54 15.80Q157.73 16.32 156.74 16.32L156.74 16.32Q153.29 16.32 153.29 12.96L153.29 12.96L153.29 10.56Q153.29 7.20 156.74 7.20L156.74 7.20L159.53 7.20L159.53 3.26Q159.53 2.40 158.98 1.92Q158.42 1.44 157.34 1.44L157.34 1.44Q155.21 1.44 155.21 3.26L155.21 3.26L155.21 4.68L153.53 4.68L153.53 3.36Q153.53 1.75 154.48 0.88Q155.42 0 157.34 0Q159.26 0 160.24 0.88Q161.21 1.75 161.21 3.36L161.21 3.36ZM159.53 12.55L159.53 8.64L156.74 8.64Q155.74 8.64 155.35 9.14Q154.97 9.65 154.97 10.56L154.97 10.56L154.97 12.96Q154.97 13.87 155.35 14.38Q155.74 14.88 156.74 14.88Q157.75 14.88 158.62 14.10Q159.48 13.32 159.53 12.55L159.53 12.55ZM167.45 3.77L167.45 15.96L165.77 15.96L165.77 0.36L166.49 0.36L167.09 1.90Q167.59 1.03 168.41 0.52Q169.22 0 170.18 0L170.18 0Q172.61 0 173.28 1.75L173.28 1.75Q174.43 0 176.30 0L176.30 0Q179.69 0 179.69 3.36L179.69 3.36L179.69 15.96L178.01 15.96L178.01 3.36Q178.01 1.44 176.28 1.44L176.28 1.44Q175.27 1.44 174.42 2.26Q173.57 3.07 173.57 3.84L173.57 3.84L173.57 15.96L171.89 15.96L171.89 3.36Q171.89 1.44 170.16 1.44L170.16 1.44Q169.15 1.44 168.30 2.22Q167.45 3 167.45 3.77L167.45 3.77ZM184.25 15.96L184.25 0.36L187.87 0.36Q189.74 0.36 190.72 1.25Q191.69 2.14 191.69 3.72L191.69 3.72L191.69 5.16Q191.69 7.20 189.98 7.78L189.98 7.78Q191.93 8.30 191.93 10.44L191.93 10.44L191.93 12.60Q191.93 14.21 190.97 15.08Q190.01 15.96 188.11 15.96L188.11 15.96L184.25 15.96ZM190.25 12.60L190.25 12.60L190.25 10.44Q190.25 9.53 189.70 8.96Q189.14 8.40 188.11 8.40L188.11 8.40L185.93 8.40L185.93 14.52L188.11 14.52Q190.25 14.52 190.25 12.60ZM190.01 5.16L190.01 5.16L190.01 3.72Q190.01 2.81 189.46 2.30Q188.90 1.80 187.87 1.80L187.87 1.80L185.93 1.80L185.93 7.20L187.87 7.20Q188.93 7.20 189.47 6.65Q190.01 6.10 190.01 5.16ZM202.25 12.96L202.25 12.96L202.25 11.64L203.93 11.64L203.93 12.96Q203.93 14.57 202.94 15.44Q201.96 16.32 199.99 16.32Q198.02 16.32 197.02 15.44Q196.01 14.57 196.01 12.96L196.01 12.96L196.01 3.36Q196.01 1.75 196.99 0.88Q197.98 0 199.94 0Q201.91 0 202.92 0.88Q203.93 1.75 203.93 3.36L203.93 3.36L203.93 8.64L197.69 8.64L197.69 12.96Q197.69 14.88 199.97 14.88Q202.25 14.88 202.25 12.96ZM197.69 3.36L197.69 3.36L197.69 7.20L202.25 7.20L202.25 3.36Q202.25 1.44 199.97 1.44Q197.69 1.44 197.69 3.36ZM210.05 4.99L210.05 15.96L208.37 15.96L208.37 0.36L209.09 0.36L209.78 2.14Q210.55 0 212.23 0L212.23 0Q215.09 0 215.09 3.12L215.09 3.12L215.09 4.68L213.48 4.68L213.48 3.02Q213.48 1.44 212.16 1.44L212.16 1.44Q211.37 1.44 210.71 2.35Q210.05 3.26 210.05 4.99L210.05 4.99Z" transform="translate(51, 2.307)"></path></svg>