<?xml version="1.0" encoding="UTF-8"?>
<svg xmlns="http://www.w3.org/2000/svg" xmlns:xlink="http://www.w3.org/1999/xlink" width="50px" height="50px" viewBox="0 0 50 50" version="1.1">
<g id="surface1">
<path style=" stroke:none;fill-rule:nonzero;fill:rgb(17.647059%,66.666667%,88.235294%);fill-opacity:1;" d="M 50 25 C 50 38.808594 38.808594 50 25 50 C 11.191406 50 0 38.808594 0 25 C 0 11.191406 11.191406 0 25 0 C 38.808594 0 50 11.191406 50 25 Z M 50 25 "/>
<path style=" stroke:none;fill-rule:nonzero;fill:rgb(100%,100%,100%);fill-opacity:1;" d="M 41.03125 15.054688 C 39.851562 15.578125 38.582031 15.933594 37.253906 16.089844 C 38.609375 15.277344 39.652344 13.988281 40.144531 12.453125 C 38.851562 13.21875 37.441406 13.757812 35.964844 14.050781 C 34.769531 12.769531 33.058594 11.972656 31.167969 11.972656 C 27.535156 11.972656 24.589844 14.917969 24.589844 18.550781 C 24.589844 19.0625 24.648438 19.566406 24.761719 20.046875 C 19.292969 19.773438 14.449219 17.15625 11.203125 13.175781 C 10.636719 14.148438 10.3125 15.277344 10.3125 16.484375 C 10.3125 18.765625 11.476562 20.777344 13.238281 21.957031 C 12.195312 21.925781 11.171875 21.644531 10.261719 21.136719 L 10.261719 21.21875 C 10.261719 24.40625 12.527344 27.0625 15.535156 27.667969 C 14.984375 27.816406 14.402344 27.898438 13.800781 27.898438 C 13.378906 27.898438 12.964844 27.855469 12.566406 27.78125 C 13.402344 30.394531 15.832031 32.292969 18.707031 32.347656 C 16.457031 34.113281 13.621094 35.164062 10.539062 35.164062 C 10.007812 35.164062 9.484375 35.132812 8.96875 35.070312 C 11.882812 36.9375 15.335938 38.027344 19.050781 38.027344 C 31.148438 38.027344 37.765625 28.003906 37.765625 19.316406 C 37.765625 19.03125 37.757812 18.746094 37.742188 18.464844 C 39.03125 17.53125 40.144531 16.378906 41.03125 15.054688 Z M 41.03125 15.054688 "/>
</g>
</svg>
